<svg xmlns="http://www.w3.org/2000/svg" viewBox="0 0 128 128"><defs><style>.cls-1,.cls-2{fill:#daaf26;}.cls-2{stroke:#000;stroke-miterlimit:10;stroke-width:2px;}.cls-3{fill:#57926a;}</style></defs><title>flechas</title><g id="txt"><path class="cls-1" d="M4.65,1,19.09,15.41,4.65,29.85A2.51,2.51,0,0,1,.36,28.07V2.75A2.51,2.51,0,0,1,4.65,1Z"/><path class="cls-2" d="M68.55,1.87,82.18,15.5,68.55,29.13a2.38,2.38,0,0,1-4-1.68V3.55A2.38,2.38,0,0,1,68.55,1.87Z"/><path class="cls-3" d="M36.55.87,50.18,14.5,36.55,28.13a2.38,2.38,0,0,1-4-1.68V2.55A2.38,2.38,0,0,1,36.55.87Z"/><path class="cls-1" d="M91.88,33,77.45,47.41,91.88,61.85a2.52,2.52,0,0,0,4.3-1.78V34.75A2.52,2.52,0,0,0,91.88,33Z"/><path class="cls-2" d="M28,33.87,14.36,47.5,28,61.13A2.38,2.38,0,0,0,32,59.45V35.55A2.38,2.38,0,0,0,28,33.87Z"/><path class="cls-3" d="M60,32.87,46.36,46.5,60,60.13A2.38,2.38,0,0,0,64,58.45V34.55A2.38,2.38,0,0,0,60,32.87Z"/></g></svg>